<svg width="104" height="23" viewBox="0 0 104 23" fill="none" xmlns="http://www.w3.org/2000/svg">
<path d="M22.46 19.592V1.28H19.52V22H31.84V19.592H22.46ZM44.9675 22.28C50.7355 22.28 54.1515 18.332 54.1515 11.64C54.1515 4.948 50.7355 0.999998 44.9675 0.999998C39.1715 0.999998 35.7555 4.948 35.7555 11.64C35.7555 18.332 39.1715 22.28 44.9675 22.28ZM44.9675 19.872C41.0475 19.872 38.7515 16.82 38.7515 11.64C38.7515 6.46 41.0475 3.408 44.9675 3.408C48.8315 3.408 51.1275 6.46 51.1275 11.64C51.1275 16.82 48.8315 19.872 44.9675 19.872ZM68.6829 11.192V13.264H74.8709C74.7589 17.408 72.6029 19.872 68.9629 19.872C65.1829 19.872 62.9709 16.82 62.9709 11.64C62.9709 6.46 65.2389 3.408 69.1309 3.408C72.0149 3.408 74.1149 5.368 74.7309 8.616H77.5309C76.8309 3.856 73.7229 0.999998 69.1309 0.999998C63.3629 0.999998 59.9469 4.948 59.9469 11.64C59.9469 18.332 62.9429 22.28 67.7029 22.28C72.2389 22.28 74.8989 19.396 74.8989 14.524H74.9549V22H77.6989V11.192H68.6829ZM92.9675 22.28C98.7355 22.28 102.151 18.332 102.151 11.64C102.151 4.948 98.7355 0.999998 92.9675 0.999998C87.1715 0.999998 83.7555 4.948 83.7555 11.64C83.7555 18.332 87.1715 22.28 92.9675 22.28ZM92.9675 19.872C89.0475 19.872 86.7515 16.82 86.7515 11.64C86.7515 6.46 89.0475 3.408 92.9675 3.408C96.8315 3.408 99.1275 6.46 99.1275 11.64C99.1275 16.82 96.8315 19.872 92.9675 19.872Z" fill="#FA3B61"/>
<circle cx="5" cy="12" r="5" fill="#5C0E46"/>
</svg>
